<svg xmlns="http://www.w3.org/2000/svg" xmlns:xlink="http://www.w3.org/1999/xlink" width="500" zoomAndPan="magnify" viewBox="0 0 375 374.999991" height="500" preserveAspectRatio="xMidYMid meet" version="1.0"><defs><g/><clipPath id="8861bfaf21"><path d="M 87.175781 87.175781 L 288 87.175781 L 288 288 L 87.175781 288 Z M 87.175781 87.175781 " clip-rule="nonzero"/></clipPath></defs><g clip-path="url(#8861bfaf21)"><path fill="#545454" d="M 187.5 287.824219 C 132.179688 287.824219 87.175781 242.816406 87.175781 187.5 C 87.175781 132.179688 132.179688 87.175781 187.5 87.175781 C 242.816406 87.175781 287.824219 132.179688 287.824219 187.5 C 287.824219 242.816406 242.816406 287.824219 187.5 287.824219 Z M 187.5 88.953125 C 133.160156 88.953125 88.953125 133.160156 88.953125 187.5 C 88.953125 241.839844 133.160156 286.042969 187.5 286.042969 C 241.839844 286.042969 286.042969 241.839844 286.042969 187.5 C 286.042969 133.160156 241.839844 88.953125 187.5 88.953125 Z M 187.5 88.953125 " fill-opacity="1" fill-rule="nonzero"/></g><g fill="#545454" fill-opacity="1"><g transform="translate(146.312952, 223.502274)"><g><path d="M 32.34375 -81.34375 L 24.5625 -81.34375 L 24.5625 -8.875 C 24.5625 -6.769531 25.3125 -4.96875 26.8125 -3.46875 C 28.3125 -1.96875 30.15625 -1.21875 32.34375 -1.21875 L 33.796875 -1.21875 L 33.921875 0 L 7.296875 0 L 7.296875 -1.21875 L 8.875 -1.21875 C 10.976562 -1.21875 12.78125 -1.945312 14.28125 -3.40625 C 15.78125 -4.863281 16.570312 -6.644531 16.65625 -8.75 L 16.65625 -76.234375 C 16.570312 -78.347656 15.78125 -80.15625 14.28125 -81.65625 C 12.78125 -83.15625 10.976562 -83.90625 8.875 -83.90625 L 7.296875 -83.90625 L 7.296875 -85.109375 L 40.125 -85.109375 C 47.5 -85.109375 53.296875 -83.0625 57.515625 -78.96875 C 61.734375 -74.875 63.84375 -69.566406 63.84375 -63.046875 C 63.84375 -56.523438 61.832031 -50.890625 57.8125 -46.140625 C 53.800781 -41.398438 48.921875 -39.03125 43.171875 -39.03125 C 44.378906 -38.46875 45.8125 -37.351562 47.46875 -35.6875 C 49.132812 -34.019531 50.617188 -32.296875 51.921875 -30.515625 C 58.890625 -20.546875 63.425781 -14.40625 65.53125 -12.09375 C 67.644531 -9.789062 69.144531 -8.210938 70.03125 -7.359375 C 70.925781 -6.503906 71.898438 -5.671875 72.953125 -4.859375 C 74.003906 -4.046875 75.0625 -3.398438 76.125 -2.921875 C 78.46875 -1.785156 80.976562 -1.21875 83.65625 -1.21875 L 83.65625 0 L 76.96875 0 C 73.476562 0 70.234375 -0.625 67.234375 -1.875 C 64.242188 -3.132812 62 -4.429688 60.5 -5.765625 C 59 -7.109375 57.695312 -8.40625 56.59375 -9.65625 C 55.5 -10.914062 52.476562 -15.113281 47.53125 -22.25 C 42.59375 -29.382812 39.71875 -33.457031 38.90625 -34.46875 C 38.09375 -35.476562 37.242188 -36.472656 36.359375 -37.453125 C 33.765625 -40.203125 31.171875 -41.578125 28.578125 -41.578125 L 28.578125 -42.796875 C 29.222656 -42.710938 30.070312 -42.671875 31.125 -42.671875 C 32.175781 -42.671875 33.472656 -42.710938 35.015625 -42.796875 C 45.066406 -43.046875 51.390625 -47.265625 53.984375 -55.453125 C 54.472656 -57.066406 54.71875 -58.582031 54.71875 -60 C 54.71875 -61.425781 54.71875 -62.34375 54.71875 -62.75 C 54.550781 -68.175781 53.128906 -72.550781 50.453125 -75.875 C 47.785156 -79.195312 44.179688 -80.976562 39.640625 -81.21875 C 37.691406 -81.300781 35.257812 -81.34375 32.34375 -81.34375 Z M 32.34375 -81.34375 "/></g></g></g><g fill="#545454" fill-opacity="1"><g transform="translate(154.071089, 236.320868)"><g><path d="M 6.84375 -6.59375 C 6.84375 -6.207031 6.765625 -5.851562 6.609375 -5.53125 C 6.328125 -4.914062 5.828125 -4.484375 5.109375 -4.234375 C 4.859375 -4.148438 4.640625 -4.109375 4.453125 -4.109375 C 3.921875 -4.109375 3.457031 -4.207031 3.0625 -4.40625 L 3.0625 -4.53125 C 3.695312 -4.394531 4.285156 -4.46875 4.828125 -4.75 C 5.296875 -4.988281 5.617188 -5.382812 5.796875 -5.9375 C 5.847656 -6.113281 5.875 -6.28125 5.875 -6.4375 C 5.875 -6.59375 5.875 -6.6875 5.875 -6.71875 C 5.851562 -7.320312 5.691406 -7.800781 5.390625 -8.15625 C 5.085938 -8.519531 4.664062 -8.703125 4.125 -8.703125 L 2.625 -8.703125 L 2.625 -0.953125 C 2.632812 -0.722656 2.71875 -0.523438 2.875 -0.359375 C 3.039062 -0.203125 3.234375 -0.125 3.453125 -0.125 L 3.625 -0.125 L 3.625 0 L 0.78125 0 L 0.78125 -0.125 L 0.953125 -0.125 C 1.171875 -0.125 1.359375 -0.203125 1.515625 -0.359375 C 1.679688 -0.523438 1.769531 -0.722656 1.78125 -0.953125 L 1.78125 -8.21875 C 1.75 -8.4375 1.65625 -8.613281 1.5 -8.75 C 1.351562 -8.894531 1.171875 -8.96875 0.953125 -8.96875 L 0.796875 -8.96875 L 0.78125 -9.09375 L 4.171875 -9.09375 C 5.003906 -9.09375 5.65625 -8.867188 6.125 -8.421875 C 6.601562 -7.984375 6.84375 -7.375 6.84375 -6.59375 Z M 6.84375 -6.59375 "/></g></g></g><g fill="#545454" fill-opacity="1"><g transform="translate(161.569795, 236.320868)"><g><path d="M 2.203125 -7.96875 C 3.066406 -8.84375 4.191406 -9.28125 5.578125 -9.28125 C 6.960938 -9.28125 8.085938 -8.84375 8.953125 -7.96875 C 9.816406 -7.101562 10.25 -5.960938 10.25 -4.546875 C 10.25 -3.140625 9.816406 -2 8.953125 -1.125 C 8.085938 -0.25 6.960938 0.1875 5.578125 0.1875 C 4.191406 0.1875 3.066406 -0.25 2.203125 -1.125 C 1.335938 -2 0.90625 -3.140625 0.90625 -4.546875 C 0.90625 -5.960938 1.335938 -7.101562 2.203125 -7.96875 Z M 2.90625 -1.390625 C 3.582031 -0.597656 4.472656 -0.203125 5.578125 -0.203125 C 6.679688 -0.203125 7.566406 -0.597656 8.234375 -1.390625 C 8.910156 -2.191406 9.25 -3.242188 9.25 -4.546875 C 9.25 -5.410156 9.097656 -6.171875 8.796875 -6.828125 C 8.492188 -7.484375 8.0625 -7.988281 7.5 -8.34375 C 6.945312 -8.707031 6.304688 -8.890625 5.578125 -8.890625 C 4.472656 -8.890625 3.582031 -8.488281 2.90625 -7.6875 C 2.238281 -6.894531 1.90625 -5.847656 1.90625 -4.546875 C 1.90625 -3.242188 2.238281 -2.191406 2.90625 -1.390625 Z M 2.90625 -1.390625 "/></g></g></g><g fill="#545454" fill-opacity="1"><g transform="translate(172.460462, 236.320868)"><g><path d="M 3.453125 -8.703125 L 2.625 -8.703125 L 2.625 -0.953125 C 2.625 -0.722656 2.703125 -0.523438 2.859375 -0.359375 C 3.023438 -0.203125 3.222656 -0.125 3.453125 -0.125 L 3.609375 -0.125 L 3.625 0 L 0.78125 0 L 0.78125 -0.125 L 0.953125 -0.125 C 1.171875 -0.125 1.359375 -0.203125 1.515625 -0.359375 C 1.679688 -0.515625 1.769531 -0.707031 1.78125 -0.9375 L 1.78125 -8.15625 C 1.769531 -8.375 1.679688 -8.5625 1.515625 -8.71875 C 1.359375 -8.882812 1.171875 -8.96875 0.953125 -8.96875 L 0.78125 -8.96875 L 0.78125 -9.09375 L 4.296875 -9.09375 C 5.078125 -9.09375 5.691406 -8.875 6.140625 -8.4375 C 6.597656 -8 6.828125 -7.429688 6.828125 -6.734375 C 6.828125 -6.035156 6.609375 -5.429688 6.171875 -4.921875 C 5.742188 -4.421875 5.222656 -4.171875 4.609375 -4.171875 C 4.742188 -4.109375 4.898438 -3.988281 5.078125 -3.8125 C 5.253906 -3.632812 5.410156 -3.453125 5.546875 -3.265625 C 6.296875 -2.191406 6.78125 -1.53125 7 -1.28125 C 7.226562 -1.039062 7.390625 -0.875 7.484375 -0.78125 C 7.578125 -0.695312 7.679688 -0.609375 7.796875 -0.515625 C 7.910156 -0.429688 8.023438 -0.363281 8.140625 -0.3125 C 8.390625 -0.1875 8.65625 -0.125 8.9375 -0.125 L 8.9375 0 L 8.234375 0 C 7.859375 0 7.507812 -0.0664062 7.1875 -0.203125 C 6.863281 -0.335938 6.625 -0.472656 6.46875 -0.609375 C 6.3125 -0.753906 6.171875 -0.894531 6.046875 -1.03125 C 5.929688 -1.164062 5.609375 -1.613281 5.078125 -2.375 C 4.554688 -3.132812 4.25 -3.566406 4.15625 -3.671875 C 4.070312 -3.785156 3.984375 -3.894531 3.890625 -4 C 3.609375 -4.300781 3.332031 -4.453125 3.0625 -4.453125 L 3.0625 -4.578125 C 3.125 -4.566406 3.210938 -4.5625 3.328125 -4.5625 C 3.441406 -4.5625 3.582031 -4.566406 3.75 -4.578125 C 4.820312 -4.597656 5.492188 -5.046875 5.765625 -5.921875 C 5.816406 -6.097656 5.84375 -6.257812 5.84375 -6.40625 C 5.84375 -6.5625 5.84375 -6.660156 5.84375 -6.703125 C 5.832031 -7.285156 5.679688 -7.753906 5.390625 -8.109375 C 5.109375 -8.460938 4.722656 -8.65625 4.234375 -8.6875 C 4.023438 -8.695312 3.765625 -8.703125 3.453125 -8.703125 Z M 3.453125 -8.703125 "/></g></g></g><g fill="#545454" fill-opacity="1"><g transform="translate(181.25877, 236.320868)"><g><path d="M 7.65625 -7.9375 C 7.65625 -8.144531 7.582031 -8.320312 7.4375 -8.46875 C 7.289062 -8.625 7.117188 -8.707031 6.921875 -8.71875 L 4.453125 -8.71875 L 4.453125 -0.9375 C 4.453125 -0.707031 4.53125 -0.515625 4.6875 -0.359375 C 4.851562 -0.203125 5.050781 -0.125 5.28125 -0.125 L 5.453125 -0.125 L 5.453125 0 L 2.59375 0 L 2.59375 -0.125 L 2.765625 -0.125 C 2.992188 -0.125 3.1875 -0.203125 3.34375 -0.359375 C 3.507812 -0.515625 3.59375 -0.703125 3.59375 -0.921875 L 3.59375 -8.71875 L 1.125 -8.71875 C 0.914062 -8.707031 0.738281 -8.625 0.59375 -8.46875 C 0.457031 -8.320312 0.390625 -8.144531 0.390625 -7.9375 L 0.390625 -7.71875 L 0.265625 -7.703125 L 0.265625 -9.34375 C 0.390625 -9.289062 0.613281 -9.238281 0.9375 -9.1875 C 1.257812 -9.132812 1.550781 -9.109375 1.8125 -9.109375 L 6.21875 -9.109375 C 6.632812 -9.109375 6.984375 -9.140625 7.265625 -9.203125 C 7.554688 -9.273438 7.726562 -9.320312 7.78125 -9.34375 L 7.78125 -7.703125 L 7.65625 -7.71875 Z M 7.65625 -7.9375 "/></g></g></g><g fill="#545454" fill-opacity="1"><g transform="translate(189.290314, 236.320868)"><g><path d="M 6.140625 -8.953125 L 6.140625 -7.859375 L 6 -7.859375 L 6 -8.0625 C 6 -8.226562 5.9375 -8.375 5.8125 -8.5 C 5.695312 -8.632812 5.550781 -8.703125 5.375 -8.703125 L 2.625 -8.703125 L 2.625 -4.6875 L 4.828125 -4.6875 C 4.992188 -4.6875 5.140625 -4.75 5.265625 -4.875 C 5.390625 -5 5.453125 -5.144531 5.453125 -5.3125 L 5.453125 -5.515625 L 5.578125 -5.515625 L 5.578125 -3.453125 L 5.453125 -3.453125 L 5.453125 -3.65625 C 5.453125 -3.820312 5.390625 -3.96875 5.265625 -4.09375 C 5.148438 -4.21875 5.007812 -4.285156 4.84375 -4.296875 L 2.625 -4.296875 L 2.625 -0.953125 C 2.625 -0.722656 2.707031 -0.523438 2.875 -0.359375 C 3.039062 -0.203125 3.234375 -0.125 3.453125 -0.125 L 3.625 -0.125 L 3.625 0 L 0.78125 0 L 0.78125 -0.125 L 0.953125 -0.125 C 1.171875 -0.125 1.359375 -0.203125 1.515625 -0.359375 C 1.679688 -0.523438 1.769531 -0.722656 1.78125 -0.953125 L 1.78125 -8.234375 C 1.78125 -8.441406 1.695312 -8.613281 1.53125 -8.75 C 1.363281 -8.894531 1.171875 -8.96875 0.953125 -8.96875 L 0.796875 -8.96875 L 0.78125 -9.09375 L 4.59375 -9.09375 C 4.851562 -9.09375 5.140625 -9.117188 5.453125 -9.171875 C 5.773438 -9.222656 6.003906 -9.273438 6.140625 -9.328125 Z M 6.140625 -8.953125 "/></g></g></g><g fill="#545454" fill-opacity="1"><g transform="translate(196.321163, 236.320868)"><g><path d="M 2.203125 -7.96875 C 3.066406 -8.84375 4.191406 -9.28125 5.578125 -9.28125 C 6.960938 -9.28125 8.085938 -8.84375 8.953125 -7.96875 C 9.816406 -7.101562 10.25 -5.960938 10.25 -4.546875 C 10.25 -3.140625 9.816406 -2 8.953125 -1.125 C 8.085938 -0.25 6.960938 0.1875 5.578125 0.1875 C 4.191406 0.1875 3.066406 -0.25 2.203125 -1.125 C 1.335938 -2 0.90625 -3.140625 0.90625 -4.546875 C 0.90625 -5.960938 1.335938 -7.101562 2.203125 -7.96875 Z M 2.90625 -1.390625 C 3.582031 -0.597656 4.472656 -0.203125 5.578125 -0.203125 C 6.679688 -0.203125 7.566406 -0.597656 8.234375 -1.390625 C 8.910156 -2.191406 9.25 -3.242188 9.25 -4.546875 C 9.25 -5.410156 9.097656 -6.171875 8.796875 -6.828125 C 8.492188 -7.484375 8.0625 -7.988281 7.5 -8.34375 C 6.945312 -8.707031 6.304688 -8.890625 5.578125 -8.890625 C 4.472656 -8.890625 3.582031 -8.488281 2.90625 -7.6875 C 2.238281 -6.894531 1.90625 -5.847656 1.90625 -4.546875 C 1.90625 -3.242188 2.238281 -2.191406 2.90625 -1.390625 Z M 2.90625 -1.390625 "/></g></g></g><g fill="#545454" fill-opacity="1"><g transform="translate(207.211829, 236.320868)"><g><path d="M 0.953125 -0.125 C 1.171875 -0.125 1.359375 -0.203125 1.515625 -0.359375 C 1.679688 -0.523438 1.769531 -0.722656 1.78125 -0.953125 L 1.78125 -8.15625 C 1.769531 -8.375 1.679688 -8.5625 1.515625 -8.71875 C 1.359375 -8.882812 1.171875 -8.96875 0.953125 -8.96875 L 0.78125 -8.96875 L 0.78125 -9.09375 L 3.625 -9.09375 L 3.625 -8.96875 L 3.453125 -8.96875 C 3.140625 -8.96875 2.90625 -8.832031 2.75 -8.5625 C 2.664062 -8.4375 2.625 -8.300781 2.625 -8.15625 L 2.625 -0.40625 L 4.484375 -0.40625 C 5.128906 -0.40625 5.617188 -0.546875 5.953125 -0.828125 C 6.296875 -1.117188 6.578125 -1.546875 6.796875 -2.109375 L 6.921875 -2.109375 L 6.171875 0 L 0.78125 0 L 0.78125 -0.125 Z M 0.953125 -0.125 "/></g></g></g><g fill="#545454" fill-opacity="1"><g transform="translate(214.515585, 236.320868)"><g><path d="M 0.953125 -0.125 C 1.171875 -0.125 1.359375 -0.203125 1.515625 -0.359375 C 1.679688 -0.523438 1.769531 -0.722656 1.78125 -0.953125 L 1.78125 -8.15625 C 1.769531 -8.382812 1.679688 -8.578125 1.515625 -8.734375 C 1.359375 -8.890625 1.171875 -8.96875 0.953125 -8.96875 L 0.78125 -8.96875 L 0.78125 -9.09375 L 3.625 -9.09375 L 3.625 -8.96875 L 3.453125 -8.96875 C 3.234375 -8.96875 3.039062 -8.890625 2.875 -8.734375 C 2.71875 -8.578125 2.632812 -8.382812 2.625 -8.15625 L 2.625 -0.953125 C 2.625 -0.722656 2.707031 -0.523438 2.875 -0.359375 C 3.039062 -0.203125 3.234375 -0.125 3.453125 -0.125 L 3.625 -0.125 L 3.625 0 L 0.78125 0 L 0.78125 -0.125 Z M 0.953125 -0.125 "/></g></g></g><g fill="#545454" fill-opacity="1"><g transform="translate(218.908239, 236.320868)"><g><path d="M 2.203125 -7.96875 C 3.066406 -8.84375 4.191406 -9.28125 5.578125 -9.28125 C 6.960938 -9.28125 8.085938 -8.84375 8.953125 -7.96875 C 9.816406 -7.101562 10.25 -5.960938 10.25 -4.546875 C 10.25 -3.140625 9.816406 -2 8.953125 -1.125 C 8.085938 -0.25 6.960938 0.1875 5.578125 0.1875 C 4.191406 0.1875 3.066406 -0.25 2.203125 -1.125 C 1.335938 -2 0.90625 -3.140625 0.90625 -4.546875 C 0.90625 -5.960938 1.335938 -7.101562 2.203125 -7.96875 Z M 2.90625 -1.390625 C 3.582031 -0.597656 4.472656 -0.203125 5.578125 -0.203125 C 6.679688 -0.203125 7.566406 -0.597656 8.234375 -1.390625 C 8.910156 -2.191406 9.25 -3.242188 9.25 -4.546875 C 9.25 -5.410156 9.097656 -6.171875 8.796875 -6.828125 C 8.492188 -7.484375 8.0625 -7.988281 7.5 -8.34375 C 6.945312 -8.707031 6.304688 -8.890625 5.578125 -8.890625 C 4.472656 -8.890625 3.582031 -8.488281 2.90625 -7.6875 C 2.238281 -6.894531 1.90625 -5.847656 1.90625 -4.546875 C 1.90625 -3.242188 2.238281 -2.191406 2.90625 -1.390625 Z M 2.90625 -1.390625 "/></g></g></g></svg>